# xmcd CD database file
#
# Track frame offsets:
#	150
#	29466
#	54579
#	74516
#	102553
#	125118
#	153456
#	174296
#	201657
#
# Disc length: 2861 seconds
#
# Revision: 0
# Processed by: cddbd v1.5.2PL0 Copyright (c) Steve Scherf et al.
# Submitted via: CDex 1.50
#
DISCID=890b2b09
DTITLE=Karunesh - Sounds Of The Heart
DYEAR=1989
DGENRE=New Age
TTITLE0=Clouds and Wings
TTITLE1=Wu-wei
TTITLE2=Fantasy Dancer
TTITLE3=Back Home
TTITLE4=The Commune
TTITLE5=Sounds of the Heart
TTITLE6=Relax
TTITLE7=Inner Flame
TTITLE8=Sounds of the Heart II
EXTD=YEAR: 1989
EXTT0=
EXTT1=
EXTT2=
EXTT3=
EXTT4=
EXTT5=
EXTT6=
EXTT7=
EXTT8=
PLAYORDER=
